<?xml version="1.0" encoding="utf-8"?>
<!-- Generator: Adobe Illustrator 22.1.0, SVG Export Plug-In . SVG Version: 6.00 Build 0)  -->
<svg version="1.1" id="Ebene_1" xmlns="http://www.w3.org/2000/svg" xmlns:xlink="http://www.w3.org/1999/xlink" x="0px" y="0px"
	 viewBox="0 0 1024 1024" style="enable-background:new 0 0 1024 1024;" xml:space="preserve">
<style type="text/css">
	.st0{fill:#D9D9D9;}
	.st1{fill:#FFFFFF;}
	.st2{fill:#5FC1CF;}
	.st3{fill:#8B8A8A;}
	.st4{fill:#3F3C3C;}
</style>
<g>
	<path class="st0" d="M511.5,1022.2c-68.8,0-135.6-13.5-198.4-40.1c-60.7-25.7-115.2-62.4-162-109.2
		c-46.8-46.8-83.6-101.3-109.2-162C15.3,648.1,1.8,581.3,1.8,512.5s13.5-135.6,40.1-198.4c25.7-60.7,62.4-115.2,109.2-162
		s101.3-83.6,162-109.2C375.9,16.3,442.7,2.8,511.5,2.8s135.6,13.5,198.4,40.1c60.7,25.7,115.2,62.4,162,109.2
		c46.8,46.8,83.6,101.3,109.2,162c26.6,62.8,40.1,129.6,40.1,198.4s-13.5,135.6-40.1,198.4c-25.7,60.7-62.4,115.2-109.2,162
		c-46.8,46.8-101.3,83.6-162,109.2C647.1,1008.7,580.3,1022.2,511.5,1022.2z"/>
	<path class="st1" d="M511.5,3.6c68.7,0,135.4,13.5,198.1,40c60.6,25.6,115,62.3,161.8,109.1c46.7,46.7,83.4,101.2,109.1,161.8
		c26.5,62.7,40,129.4,40,198.1s-13.5,135.4-40,198.1c-25.6,60.6-62.3,115-109.1,161.8c-46.7,46.7-101.2,83.4-161.8,109.1
		c-62.7,26.5-129.4,40-198.1,40s-135.4-13.5-198.1-40c-60.6-25.6-115-62.3-161.8-109.1c-46.7-46.7-83.4-101.2-109.1-161.8
		c-26.5-62.7-40-129.4-40-198.1s13.5-135.4,40-198.1c25.6-60.6,62.3-115,109.1-161.8c46.7-46.7,101.2-83.4,161.8-109.1
		C376.1,17,442.8,3.6,511.5,3.6 M511.5,2C229.6,2,1,230.6,1,512.5S229.6,1023,511.5,1023S1022,794.4,1022,512.5S793.4,2,511.5,2
		L511.5,2z"/>
</g>
<g>
	<path class="st2" d="M508.2,961.5c-60.5,0-119.1-11.8-174.3-35.2c-53.3-22.6-101.2-54.9-142.4-96s-73.4-89-96-142.4
		c-23.4-55.2-35.2-113.9-35.2-174.3c0-60.5,11.8-119.1,35.2-174.3c22.6-53.3,54.9-101.2,96-142.4s89-73.4,142.4-96
		c55.2-23.4,113.9-35.2,174.3-35.2s119.1,11.8,174.3,35.2c53.3,22.6,101.2,54.9,142.4,96s73.4,89,96,142.4
		c23.4,55.2,35.2,113.9,35.2,174.3c0,60.5-11.8,119.1-35.2,174.3c-22.6,53.3-54.9,101.2-96,142.4s-89,73.4-142.4,96
		C627.4,949.6,568.7,961.5,508.2,961.5z"/>
	<path class="st1" d="M508.2,66.4c60.4,0,118.9,11.8,174.1,35.1c53.3,22.5,101.1,54.8,142.1,95.8c41.1,41.1,73.3,88.9,95.8,142.1
		c23.3,55.1,35.1,113.7,35.1,174.1s-11.8,118.9-35.1,174.1c-22.5,53.3-54.8,101.1-95.8,142.1s-88.9,73.3-142.1,95.8
		c-55.1,23.3-113.7,35.1-174.1,35.1S389.3,949,334.2,925.6c-53.3-22.5-101.1-54.8-142.1-95.8c-41.1-41.1-73.3-88.9-95.8-142.1
		C72.9,632.5,61,574,61,513.6s11.8-118.9,35.1-174.1c22.5-53.3,54.8-101.1,95.8-142.1c41.1-41.1,88.9-73.3,142.1-95.8
		C389.3,78.2,447.9,66.4,508.2,66.4 M508.2,65C260.5,65,59.7,265.8,59.7,513.6s200.8,448.6,448.6,448.6s448.6-200.8,448.6-448.6
		S756,65,508.2,65L508.2,65z"/>
</g>
<g>
	<path class="st3" d="M508.2,881.2c-49.6,0-97.8-9.7-143.1-28.9c-43.8-18.5-83.1-45-116.9-78.8s-60.3-73.1-78.8-116.9
		c-19.2-45.3-28.9-93.5-28.9-143.1c0-49.6,9.7-97.8,28.9-143.1c18.5-43.8,45-83.1,78.8-116.9s73.1-60.3,116.9-78.8
		c45.3-19.2,93.5-28.9,143.1-28.9s97.8,9.7,143.1,28.9c43.8,18.5,83.1,45,116.9,78.8s60.3,73.1,78.8,116.9
		c19.2,45.3,28.9,93.5,28.9,143.1c0,49.6-9.7,97.8-28.9,143.1c-18.5,43.8-45,83.1-78.8,116.9s-73.1,60.3-116.9,78.8
		C606,871.5,557.9,881.2,508.2,881.2z"/>
	<path class="st1" d="M508.2,146.5c49.6,0,97.6,9.7,142.9,28.8c43.7,18.5,83,45,116.7,78.7c33.7,33.7,60.2,73,78.7,116.7
		c19.1,45.3,28.8,93.3,28.8,142.9s-9.7,97.6-28.8,142.9c-18.5,43.7-45,83-78.7,116.7c-33.7,33.7-73,60.2-116.7,78.7
		c-45.3,19.1-93.3,28.8-142.9,28.8s-97.6-9.7-142.9-28.8c-43.7-18.5-83-45-116.7-78.7s-60.2-73-78.7-116.7
		c-19.1-45.3-28.8-93.3-28.8-142.9s9.7-97.6,28.8-142.9c18.5-43.7,45-83,78.7-116.7s73-60.2,116.7-78.7
		C410.6,156.2,458.7,146.5,508.2,146.5 M508.2,145.4C304.9,145.4,140,310.2,140,513.6s164.9,368.2,368.2,368.2
		s368.2-164.9,368.2-368.2S711.6,145.4,508.2,145.4L508.2,145.4z"/>
</g>
<g>
	<path class="st4" d="M513.7,777.1c-70.7,0-137.1-27.5-187.1-77.5c-50-50-77.5-116.4-77.5-187.1c0-70.7,27.5-137.1,77.5-187.1
		s116.4-77.5,187.1-77.5c70.7,0,137.1,27.5,187.1,77.5c50,50,77.5,116.4,77.5,187.1c0,70.7-27.5,137.1-77.5,187.1
		C650.8,749.6,584.4,777.1,513.7,777.1z"/>
	<path class="st1" d="M513.7,248.3c35.7,0,70.3,7,102.8,20.8c31.5,13.3,59.7,32.4,84,56.6c24.3,24.3,43.3,52.5,56.6,84
		c13.8,32.6,20.8,67.2,20.8,102.8s-7,70.3-20.8,102.8c-13.3,31.5-32.4,59.7-56.6,84c-24.3,24.3-52.5,43.3-84,56.6
		c-32.6,13.8-67.2,20.8-102.8,20.8s-70.3-7-102.8-20.8c-31.5-13.3-59.7-32.4-84-56.6c-24.3-24.3-43.3-52.5-56.6-84
		c-13.8-32.6-20.8-67.2-20.8-102.8s7-70.3,20.8-102.8c13.3-31.5,32.4-59.7,56.6-84c24.3-24.3,52.5-43.3,84-56.6
		C443.4,255.3,478,248.3,513.7,248.3 M513.7,247.5c-146.4,0-265,118.7-265,265s118.7,265,265,265s265-118.7,265-265
		S660,247.5,513.7,247.5L513.7,247.5z"/>
</g>
</svg>
