<svg id="Ebene_1" data-name="Ebene 1" xmlns="http://www.w3.org/2000/svg" viewBox="0 0 595.28 276.56"><defs><style>.cls-1{fill:#1d1d1b;}</style></defs><title>P6_180515_Logo_vendy</title><polygon class="cls-1" points="11.5 97.39 0 97.39 28.68 159.89 34.69 147.61 11.5 97.39"/><path class="cls-1" d="M153.29,464.62c-12.63,0-23.43-3.49-32.11-9.5,9.66,11.2,23.85,18.09,41.64,18.09,22.16,0,42.13-11.43,52.84-31.15l-11-6.24A59.18,59.18,0,0,1,153.29,464.62Z" transform="translate(-8 -258)"/><polygon class="cls-1" points="31.37 201.11 38.22 215.21 95.66 97.39 81.94 97.39 31.37 201.11"/><path class="cls-1" d="M162.34,370.94A31.75,31.75,0,0,1,178,374.85c-5.46-7.8-14-12.49-25.21-12.49-17,0-29.7,12.19-32.38,28.52h12C137.47,379,148.45,370.94,162.34,370.94Z" transform="translate(-8 -258)"/><polygon class="cls-1" points="532.42 150.22 504.26 97.39 491.48 97.39 525.37 161.11 532.42 150.22"/><path class="cls-1" d="M257.86,349.57l-11.08.1v12.45h.49C248.17,358.5,251.15,353.08,257.86,349.57Z" transform="translate(-8 -258)"/><path class="cls-1" d="M313.41,357.11C319.83,366,322,378.6,322,392.8v67.93H303.23l9.54,8.58h18.78V401.38C331.55,381.67,327.33,365.09,313.41,357.11Z" transform="translate(-8 -258)"/><polygon class="cls-1" points="581.32 97.39 493.48 267.98 482.73 267.98 481.96 267.98 481.96 267.98 472.42 267.98 481.96 276.56 503.02 276.56 595.28 97.39 581.32 97.39"/><path class="cls-1" d="M459.1,460.73H437.21V443H437c-.43.47-.85.94-1.3,1.37-8.81,12.11-22.21,20.27-37.69,20.27a51.73,51.73,0,0,1-30-9c9.22,10.72,22.51,17.56,39.51,17.56a45,45,0,0,0,30.25-12l9,8.07h21.88V258H459.1Z" transform="translate(-8 -258)"/><path class="cls-1" d="M275,362.85c-29.92,1.37-28.26,31.14-28.26,45.53v52.35h-18.9l9.53,8.58h18.91V417c0-20.69,0-45.53,28.26-45.53a34,34,0,0,1,12.19,1.92C293.5,366.73,287.16,362.29,275,362.85Z" transform="translate(-8 -258)"/><path class="cls-1" d="M192.56,360.45c9.12,11,13.56,26.33,13.56,43.55v3.41H119.2c.17,13.67,6.71,26.72,17.81,33.3A41.82,41.82,0,0,1,128.74,416h86.92v-3.4C215.66,390.18,208.14,370.93,192.56,360.45Z" transform="translate(-8 -258)"/><path class="cls-1" d="M383.78,440.45c-5.81-7.61-8.89-17.67-8.89-28.1,0-21.19,13.4-40.92,36.05-40.92a36.41,36.41,0,0,1,18.88,4.93c-6.31-8.23-15.91-13.51-28.41-13.51-22.66,0-36.05,19.73-36.05,40.92C365.36,418.91,371.83,433.29,383.78,440.45Z" transform="translate(-8 -258)"/></svg>